<svg width="477" height="344" viewBox="0 0 477 344" fill="none" xmlns="http://www.w3.org/2000/svg">
<path d="M349.9 322.024H355.373V331.5H334.745V322.47V321.97H334.245H330.085C329.044 321.969 328.031 321.625 327.205 320.991C326.379 320.356 325.786 319.466 325.516 318.46L325.476 318.308L325.356 318.207L245.571 250.873L245.249 250.601L244.926 250.873L166.3 317.231L166.139 317.367L166.123 317.577C166.036 318.77 165.502 319.885 164.627 320.7C163.752 321.515 162.601 321.968 161.406 321.97H157.246H156.746V322.47V331.5H136.133V322.017H141.611H142.111V321.517V94.6937V94.1937H141.611H125.5V78.0696H158.237H158.737V77.5696V67.616V67.116H158.237H153.59V0.5H336.088V67.116H331.449H330.949V67.616V77.5696V78.0696H331.449H367.5V94.1937H349.881L349.783 94.7014H349.4V321.524V322.024H349.9ZM244.926 243.643L245.249 243.915L245.571 243.643L310.037 189.236L311.082 188.354H309.714H180.783H179.415L180.46 189.236L244.926 243.643ZM317.397 149.356V149.856H317.897H324.847H325.347V149.356V67.616V67.116H324.847H317.897H317.397V67.616V149.356ZM172.28 67.616V67.116H171.78H164.835H164.335V67.616V149.356V149.856H164.835H171.78H172.28V149.356V67.616ZM161.406 312.475H161.408C162.017 312.473 162.62 312.59 163.184 312.819L163.464 312.933L163.695 312.738L240.843 247.634L241.296 247.252L240.843 246.87L171.653 188.472L171.514 188.354H171.331H153.59V162.056V161.556H153.09H150.575H150.075V162.056V311.975V312.475H150.575H161.406ZM150.075 154.181V154.681H150.575H153.09H153.59V154.181V149.845H158.237H158.737V149.345V94.6823V94.1823H158.237H150.575H150.075V94.6823V154.181ZM327.168 313.047L327.436 313.273L327.739 313.098C328.453 312.689 329.262 312.474 330.084 312.475L340.9 312.486L341.401 312.487V311.986V162.056V161.556H340.901H336.573H336.073V162.056V188.354H319.155H318.972L318.832 188.472L249.639 246.87L249.186 247.252L249.639 247.634L327.168 313.047ZM336.073 154.181V154.681H336.573H340.901H341.401V154.181V94.6937V94.1937H340.901H331.434H330.934V94.6937V149.356V149.856H331.434H336.073V154.181Z" stroke="#1E1C1C"/>
<path d="M49.685 19.27C47.075 19.27 45.329 17.776 45.257 15.436L46.841 15.238C46.913 16.93 48.011 17.92 49.739 17.92C51.431 17.92 52.313 17.074 52.313 15.49C52.313 13.996 51.377 13.168 49.505 13.168H48.803V11.836H49.433C51.107 11.836 51.881 11.008 51.881 9.676C51.881 8.344 51.017 7.57 49.541 7.57C47.921 7.57 47.003 8.578 47.003 10.432L45.491 10.108C45.491 7.696 47.075 6.22 49.631 6.22C52.079 6.22 53.501 7.462 53.501 9.496C53.501 10.936 52.637 12.034 51.233 12.376C52.979 12.682 53.933 13.672 53.933 15.454C53.933 17.848 52.295 19.27 49.685 19.27ZM60.4018 10.648C62.7418 10.648 64.2718 12.322 64.2718 14.914C64.2718 17.506 62.6158 19.27 60.1498 19.27C57.1798 19.27 55.6498 17.146 55.6498 13.024C55.6498 8.65 57.3238 6.22 60.3118 6.22C62.3998 6.22 63.7498 7.318 64.1278 9.316L62.5078 9.676C62.2198 8.254 61.4998 7.57 60.2938 7.57C58.3318 7.57 57.3058 9.226 57.2338 12.466C57.8098 11.314 58.9618 10.648 60.4018 10.648ZM60.1678 17.92C61.6798 17.92 62.6518 16.75 62.6518 14.932C62.6518 13.132 61.6618 11.998 60.0958 11.998C58.7098 11.998 57.7198 12.916 57.2878 14.536C57.4678 16.606 58.5838 17.92 60.1678 17.92Z" fill="#1E1C1C"/>
<path d="M461.562 10.648C463.902 10.648 465.432 12.322 465.432 14.914C465.432 17.506 463.776 19.27 461.31 19.27C458.34 19.27 456.81 17.146 456.81 13.024C456.81 8.65 458.484 6.22 461.472 6.22C463.56 6.22 464.91 7.318 465.288 9.316L463.668 9.676C463.38 8.254 462.66 7.57 461.454 7.57C459.492 7.57 458.466 9.226 458.394 12.466C458.97 11.314 460.122 10.648 461.562 10.648ZM461.328 17.92C462.84 17.92 463.812 16.75 463.812 14.932C463.812 13.132 462.822 11.998 461.256 11.998C459.87 11.998 458.88 12.916 458.448 14.536C458.628 16.606 459.744 17.92 461.328 17.92ZM471.722 10.648C474.062 10.648 475.592 12.322 475.592 14.914C475.592 17.506 473.936 19.27 471.47 19.27C468.5 19.27 466.97 17.146 466.97 13.024C466.97 8.65 468.644 6.22 471.632 6.22C473.72 6.22 475.07 7.318 475.448 9.316L473.828 9.676C473.54 8.254 472.82 7.57 471.614 7.57C469.652 7.57 468.626 9.226 468.554 12.466C469.13 11.314 470.282 10.648 471.722 10.648ZM471.488 17.92C473 17.92 473.972 16.75 473.972 14.932C473.972 13.132 472.982 11.998 471.416 11.998C470.03 11.998 469.04 12.916 468.608 14.536C468.788 16.606 469.904 17.92 471.488 17.92Z" fill="#1E1C1C"/>
<path d="M2.34102 339V326.22H4.77102L8.15502 336.048C8.37102 336.678 8.40702 336.786 8.47902 337.254H8.51502C8.58702 336.786 8.62302 336.678 8.83902 336.048L12.223 326.22H14.653V339H13.087V329.136C13.087 328.614 13.105 328.182 13.159 327.768H13.087C13.051 328.02 12.871 328.794 12.709 329.226L9.32502 339H7.66902L4.28502 329.226C4.12302 328.794 3.94302 328.02 3.90702 327.768H3.83502C3.88902 328.182 3.90702 328.614 3.90702 329.136V339H2.34102ZM20.3012 339.216C18.4652 339.216 17.2592 338.172 17.2592 336.57C17.2592 335.67 17.7092 334.896 18.5192 334.446C19.2032 334.104 20.0672 333.888 21.5432 333.708L23.2172 333.51V333.366C23.2172 331.71 22.6232 331.044 21.2372 331.044C20.0132 331.044 19.2572 331.692 19.1852 332.826H17.5472C17.6732 330.99 19.1132 329.784 21.2192 329.784C23.6852 329.784 24.7652 330.9 24.7652 333.528V335.958C24.7652 337.344 24.8552 338.298 25.0712 339H23.4692C23.3972 338.532 23.3432 337.938 23.3252 337.362C22.9112 338.514 21.7772 339.216 20.3012 339.216ZM20.6432 337.956C22.2092 337.956 23.2352 336.822 23.2352 335.076V334.626L20.7872 334.986C19.4552 335.184 18.8792 335.652 18.8792 336.534C18.8792 337.416 19.5452 337.956 20.6432 337.956ZM26.4223 339L29.6803 334.356L26.6563 330H28.4563L30.0943 332.538C30.4003 333.024 30.5623 333.312 30.6163 333.474H30.6343C30.7063 333.294 30.8683 332.988 31.1383 332.538L32.6863 330H34.5583L31.5883 334.464L34.7923 339H32.9743L31.1203 336.228C30.8323 335.796 30.6523 335.454 30.6163 335.31H30.5983C30.5623 335.436 30.4003 335.742 30.0763 336.228L28.2403 339H26.4223ZM38.4305 336.876V339H36.3245V336.876H38.4305ZM44.9933 339V337.668C46.0193 336.912 47.6393 335.616 49.2413 334.086C50.8253 332.556 51.3653 331.512 51.3653 330.018C51.3653 328.488 50.5193 327.624 49.0793 327.624C47.6213 327.624 46.7393 328.506 46.7393 329.874C46.7393 330.198 46.7933 330.576 46.8833 331.026L45.2633 330.864C45.1733 330.504 45.1373 330.18 45.1373 329.856C45.1373 327.642 46.6493 326.22 49.1693 326.22C51.5993 326.22 53.0573 327.57 53.0573 330C53.0573 331.764 52.1753 333.294 50.2493 335.076C49.2773 335.976 48.3953 336.696 47.1713 337.542H53.2013V339H44.9933ZM59.2806 339.27C56.1126 339.27 54.4566 336.75 54.4566 332.754C54.4566 328.74 56.1126 326.22 59.2806 326.22C62.4486 326.22 64.1046 328.74 64.1046 332.754C64.1046 336.75 62.4486 339.27 59.2806 339.27ZM59.2806 337.92C61.4406 337.92 62.4846 335.922 62.4846 332.754C62.4846 329.568 61.4406 327.57 59.2806 327.57C57.1206 327.57 56.0766 329.568 56.0766 332.754C56.0766 335.922 57.1206 337.92 59.2806 337.92Z" fill="#1E1C1C"/>
</svg>
