<svg width="434" height="344" viewBox="0 0 434 344" fill="none" xmlns="http://www.w3.org/2000/svg">
<path d="M167.413 19.4134L163.577 19.4134V17.0515V16.4693L163.001 16.5572C161.159 16.8385 157.112 17.8673 150.533 21.5496L143.848 9.61064C153.291 4.33205 159.55 2.99575 163.111 2.78599L163.581 2.75827V2.28685V0.5L242.078 0.5V19.4223H238.622H238.122V19.9223V51.7429C238.123 63.1929 240.988 74.458 246.453 84.4979L255.503 101.161L255.942 100.922L255.503 101.161C260.094 109.596 262.501 119.061 262.5 128.682V317.764C262.501 321.015 261.865 324.235 260.629 327.238C259.394 330.241 257.583 332.97 255.3 335.267C253.017 337.564 250.308 339.385 247.326 340.626C244.344 341.867 241.149 342.504 237.924 342.5H237.923H168.051C164.827 342.501 161.634 341.861 158.656 340.619C155.677 339.376 152.971 337.554 150.691 335.258C148.411 332.961 146.602 330.234 145.368 327.232C144.134 324.23 143.499 321.013 143.5 317.764L143.5 128.673C143.508 119.051 145.922 109.586 150.519 101.153L150.519 101.152L159.586 84.4889L159.586 84.4888C165.048 74.4479 167.912 63.1833 167.913 51.7341V51.734V19.9134V19.4134H167.413Z" stroke="#1E1C1C"/>
<path d="M255.942 100.922L246.893 84.2588C241.468 74.2924 238.623 63.1095 238.622 51.7429V19.9223H242.578V0L163.081 0V2.28685C159.373 2.50529 152.903 3.90953 143.168 9.4195L150.341 22.2315C157.138 18.371 161.267 17.3279 163.077 17.0515V19.9134L167.413 19.9134V51.734C167.412 63.0999 164.569 74.2824 159.147 84.2499L150.08 100.914C145.443 109.421 143.008 118.967 143 128.673L143 317.764C142.999 321.078 143.647 324.36 144.906 327.422C146.164 330.484 148.01 333.266 150.336 335.61C152.662 337.953 155.424 339.812 158.463 341.08C161.503 342.348 164.761 343.001 168.051 343H237.923C241.215 343.004 244.476 342.354 247.518 341.088C250.561 339.821 253.326 337.963 255.655 335.619C257.984 333.275 259.831 330.492 261.092 327.428C262.352 324.364 263.001 321.08 263 317.764V128.682C263.001 118.978 260.574 109.431 255.942 100.922Z" fill="#E43C13"/>
<path d="M6.68495 19.27C4.07495 19.27 2.32895 17.776 2.25695 15.436L3.84095 15.238C3.91295 16.93 5.01095 17.92 6.73895 17.92C8.43095 17.92 9.31295 17.074 9.31295 15.49C9.31295 13.996 8.37695 13.168 6.50495 13.168H5.80295V11.836H6.43295C8.10695 11.836 8.88095 11.008 8.88095 9.676C8.88095 8.344 8.01695 7.57 6.54095 7.57C4.92095 7.57 4.00295 8.578 4.00295 10.432L2.49095 10.108C2.49095 7.696 4.07495 6.22 6.63095 6.22C9.07895 6.22 10.501 7.462 10.501 9.496C10.501 10.936 9.63695 12.034 8.23295 12.376C9.97895 12.682 10.933 13.672 10.933 15.454C10.933 17.848 9.29495 19.27 6.68495 19.27ZM17.4018 10.648C19.7418 10.648 21.2718 12.322 21.2718 14.914C21.2718 17.506 19.6158 19.27 17.1498 19.27C14.1798 19.27 12.6498 17.146 12.6498 13.024C12.6498 8.65 14.3238 6.22 17.3118 6.22C19.3998 6.22 20.7498 7.318 21.1278 9.316L19.5078 9.676C19.2198 8.254 18.4998 7.57 17.2938 7.57C15.3318 7.57 14.3058 9.226 14.2338 12.466C14.8098 11.314 15.9618 10.648 17.4018 10.648ZM17.1678 17.92C18.6798 17.92 19.6518 16.75 19.6518 14.932C19.6518 13.132 18.6618 11.998 17.0958 11.998C15.7098 11.998 14.7198 12.916 14.2878 14.536C14.4678 16.606 15.5838 17.92 17.1678 17.92Z" fill="#1E1C1C"/>
<path d="M418.562 10.648C420.902 10.648 422.432 12.322 422.432 14.914C422.432 17.506 420.776 19.27 418.31 19.27C415.34 19.27 413.81 17.146 413.81 13.024C413.81 8.65 415.484 6.22 418.472 6.22C420.56 6.22 421.91 7.318 422.288 9.316L420.668 9.676C420.38 8.254 419.66 7.57 418.454 7.57C416.492 7.57 415.466 9.226 415.394 12.466C415.97 11.314 417.122 10.648 418.562 10.648ZM418.328 17.92C419.84 17.92 420.812 16.75 420.812 14.932C420.812 13.132 419.822 11.998 418.256 11.998C416.87 11.998 415.88 12.916 415.448 14.536C415.628 16.606 416.744 17.92 418.328 17.92ZM428.722 10.648C431.062 10.648 432.592 12.322 432.592 14.914C432.592 17.506 430.936 19.27 428.47 19.27C425.5 19.27 423.97 17.146 423.97 13.024C423.97 8.65 425.644 6.22 428.632 6.22C430.72 6.22 432.07 7.318 432.448 9.316L430.828 9.676C430.54 8.254 429.82 7.57 428.614 7.57C426.652 7.57 425.626 9.226 425.554 12.466C426.13 11.314 427.282 10.648 428.722 10.648ZM428.488 17.92C430 17.92 430.972 16.75 430.972 14.932C430.972 13.132 429.982 11.998 428.416 11.998C427.03 11.998 426.04 12.916 425.608 14.536C425.788 16.606 426.904 17.92 428.488 17.92Z" fill="#1E1C1C"/>
<path d="M2.34102 339V326.22H4.77102L8.15502 336.048C8.37102 336.678 8.40702 336.786 8.47902 337.254H8.51502C8.58702 336.786 8.62302 336.678 8.83902 336.048L12.223 326.22H14.653V339H13.087V329.136C13.087 328.614 13.105 328.182 13.159 327.768H13.087C13.051 328.02 12.871 328.794 12.709 329.226L9.32502 339H7.66902L4.28502 329.226C4.12302 328.794 3.94302 328.02 3.90702 327.768H3.83502C3.88902 328.182 3.90702 328.614 3.90702 329.136V339H2.34102ZM20.3012 339.216C18.4652 339.216 17.2592 338.172 17.2592 336.57C17.2592 335.67 17.7092 334.896 18.5192 334.446C19.2032 334.104 20.0672 333.888 21.5432 333.708L23.2172 333.51V333.366C23.2172 331.71 22.6232 331.044 21.2372 331.044C20.0132 331.044 19.2572 331.692 19.1852 332.826H17.5472C17.6732 330.99 19.1132 329.784 21.2192 329.784C23.6852 329.784 24.7652 330.9 24.7652 333.528V335.958C24.7652 337.344 24.8552 338.298 25.0712 339H23.4692C23.3972 338.532 23.3432 337.938 23.3252 337.362C22.9112 338.514 21.7772 339.216 20.3012 339.216ZM20.6432 337.956C22.2092 337.956 23.2352 336.822 23.2352 335.076V334.626L20.7872 334.986C19.4552 335.184 18.8792 335.652 18.8792 336.534C18.8792 337.416 19.5452 337.956 20.6432 337.956ZM26.4223 339L29.6803 334.356L26.6563 330H28.4563L30.0943 332.538C30.4003 333.024 30.5623 333.312 30.6163 333.474H30.6343C30.7063 333.294 30.8683 332.988 31.1383 332.538L32.6863 330H34.5583L31.5883 334.464L34.7923 339H32.9743L31.1203 336.228C30.8323 335.796 30.6523 335.454 30.6163 335.31H30.5983C30.5623 335.436 30.4003 335.742 30.0763 336.228L28.2403 339H26.4223ZM38.4305 336.876V339H36.3245V336.876H38.4305ZM44.9933 339V337.668C46.0193 336.912 47.6393 335.616 49.2413 334.086C50.8253 332.556 51.3653 331.512 51.3653 330.018C51.3653 328.488 50.5193 327.624 49.0793 327.624C47.6213 327.624 46.7393 328.506 46.7393 329.874C46.7393 330.198 46.7933 330.576 46.8833 331.026L45.2633 330.864C45.1733 330.504 45.1373 330.18 45.1373 329.856C45.1373 327.642 46.6493 326.22 49.1693 326.22C51.5993 326.22 53.0573 327.57 53.0573 330C53.0573 331.764 52.1753 333.294 50.2493 335.076C49.2773 335.976 48.3953 336.696 47.1713 337.542H53.2013V339H44.9933ZM59.2806 339.27C56.1126 339.27 54.4566 336.75 54.4566 332.754C54.4566 328.74 56.1126 326.22 59.2806 326.22C62.4486 326.22 64.1046 328.74 64.1046 332.754C64.1046 336.75 62.4486 339.27 59.2806 339.27ZM59.2806 337.92C61.4406 337.92 62.4846 335.922 62.4846 332.754C62.4846 329.568 61.4406 327.57 59.2806 327.57C57.1206 327.57 56.0766 329.568 56.0766 332.754C56.0766 335.922 57.1206 337.92 59.2806 337.92Z" fill="#1E1C1C"/>
</svg>
